<?xml version="1.0" encoding="iso-8859-1"?>
<!-- Generator: Adobe Illustrator 16.0.0, SVG Export Plug-In . SVG Version: 6.00 Build 0)  -->
<!DOCTYPE svg PUBLIC "-//W3C//DTD SVG 1.1//EN" "http://www.w3.org/Graphics/SVG/1.1/DTD/svg11.dtd">
<svg version="1.1" id="&#x5716;&#x5C64;_1" xmlns="http://www.w3.org/2000/svg" xmlns:xlink="http://www.w3.org/1999/xlink" x="0px"
	 y="0px" width="227.25px" height="62.25px" viewBox="0 0 227.25 62.25" style="enable-background:new 0 0 227.25 62.25;"
	 xml:space="preserve">
<g>
	<path id="XMLID_3_" style="fill:#046DDC;" d="M32.212,16.346L17.997,30.562l0,0c2.593,2.593,6.798,2.593,9.391,0l4.517-4.517
		c3.792-3.791,9.938-3.791,13.729,0l0,0c3.791,3.791,3.791,9.938,0,13.729L27.667,57.74c2.594,2.594,6.798,2.594,9.392,0
		l18.273-18.274c3.791-3.791,3.791-9.938,0-13.729l-9.392-9.392C42.149,12.555,36.003,12.555,32.212,16.346z"/>
	<path id="XMLID_1_" style="fill:#0398B9;" d="M16.44,23.392L34.406,5.426l0,0c-2.593-2.594-6.798-2.594-9.391,0L6.741,23.7
		c-3.792,3.791-3.792,9.938,0,13.729l9.391,9.391c3.791,3.791,9.938,3.791,13.729,0l14.215-14.216l0,0
		c-2.593-2.593-6.798-2.593-9.391,0l-4.517,4.517c-3.791,3.792-9.938,3.792-13.729,0l0,0C12.648,33.33,12.648,27.184,16.44,23.392z"
		/>
	<circle style="fill:#0398B9;" cx="11.574" cy="42.202" r="4.951"/>
	<circle style="fill:#046DDC;" cx="49.783" cy="21.058" r="4.951"/>
</g>
<g>
	<g>
		<path style="fill:#046DDC;" d="M70.812,8.241h2.695v2.881c0,0.658-0.081,1.37-0.241,2.134c-0.16,0.765-0.463,1.543-0.907,2.334
			c-0.444,0.792-1.094,1.556-1.948,2.294s-1.965,1.418-3.334,2.041c-0.178-0.284-0.445-0.618-0.8-1
			c-0.356-0.383-0.693-0.689-1.014-0.921c1.281-0.498,2.294-1.04,3.042-1.627c0.747-0.587,1.298-1.196,1.654-1.827
			s0.587-1.245,0.694-1.841c0.107-0.596,0.16-1.143,0.16-1.641V8.241z M68.332,5.36l2.561,0.506
			c-0.338,1.192-0.795,2.326-1.374,3.402c-0.578,1.076-1.205,1.978-1.88,2.707c-0.16-0.142-0.378-0.297-0.654-0.467
			c-0.275-0.169-0.556-0.337-0.84-0.506c-0.285-0.169-0.534-0.298-0.747-0.387c0.693-0.658,1.293-1.449,1.801-2.374
			C67.705,7.317,68.082,6.356,68.332,5.36z M65.557,11.789h12.218v2.241H65.557V11.789z M68.625,7.574h8.483v2.214h-8.483V7.574z
			 M69.238,19.152h17.18v11.204h-2.935v-8.91H72.039v8.937h-2.801V19.152z M70.892,23.207h13.605v2.107H70.892V23.207z
			 M70.892,27.181h13.605v2.294H70.892V27.181z M72.973,14.057c0.249,0.125,0.6,0.311,1.054,0.561
			c0.453,0.249,0.929,0.52,1.427,0.813c0.498,0.293,0.965,0.57,1.401,0.827c0.435,0.258,0.742,0.449,0.92,0.574l-2.028,1.84
			c-0.249-0.213-0.578-0.475-0.987-0.787s-0.84-0.636-1.293-0.974c-0.454-0.337-0.894-0.653-1.321-0.947
			c-0.426-0.293-0.791-0.538-1.093-0.733L72.973,14.057z M78.734,7.521h9.977v9.923h-9.977V7.521z M81.402,10.055v4.829h4.482
			v-4.829H81.402z"/>
		<path style="fill:#046DDC;" d="M95.354,23.873l2.454,0.907c-0.356,0.96-0.818,1.903-1.388,2.828
			c-0.569,0.924-1.307,1.698-2.213,2.321l-2.294-1.601c0.801-0.516,1.494-1.173,2.081-1.974S95.034,24.727,95.354,23.873z
			 M92.659,18.271h23.609v1.708H92.659V18.271z M92.846,12.083h10.99v1.708h-10.99V12.083z M93.086,6.694h10.457v1.734H93.086V6.694
			z M93.647,9.362h9.55v1.707h-9.55V9.362z M94.767,15.311h19.073v7.629H94.607v-1.761h16.432v-4.082H94.767V15.311z M97.034,5.521
			h2.641v9.417h-2.641V5.521z M98.875,23.847h2.829v3.041c0,0.338,0.093,0.551,0.279,0.64c0.187,0.089,0.6,0.133,1.241,0.133
			c0.16,0,0.413,0,0.76,0s0.734,0,1.16,0c0.427,0,0.831,0,1.214,0c0.382,0,0.671,0,0.867,0c0.338,0,0.591-0.044,0.761-0.133
			c0.168-0.089,0.293-0.289,0.374-0.6c0.08-0.311,0.137-0.778,0.173-1.4c0.196,0.142,0.444,0.276,0.748,0.4
			c0.302,0.125,0.609,0.235,0.92,0.333c0.311,0.098,0.591,0.173,0.84,0.227c-0.107,0.978-0.285,1.729-0.533,2.254
			c-0.249,0.524-0.609,0.889-1.08,1.094c-0.472,0.204-1.117,0.307-1.935,0.307c-0.124,0-0.342,0-0.653,0c-0.312,0-0.663,0-1.054,0
			c-0.391,0-0.783,0-1.173,0c-0.392,0-0.738,0-1.041,0c-0.303,0-0.516,0-0.64,0c-1.085,0-1.921-0.098-2.508-0.293
			c-0.587-0.196-0.992-0.529-1.214-1s-0.333-1.116-0.333-1.934V23.847z M101.756,23.526l1.814-1.547
			c0.711,0.338,1.436,0.756,2.174,1.254s1.303,0.987,1.694,1.467l-1.921,1.707c-0.374-0.462-0.92-0.964-1.641-1.507
			C103.157,24.358,102.45,23.9,101.756,23.526z M104.451,12.083h11.551v1.708h-11.551V12.083z M104.557,6.694h11.018v1.734h-11.018
			V6.694z M105.144,9.362h9.95v1.68h-9.95V9.362z M108.531,5.521h2.667v9.417h-2.667V5.521z M110.105,24.967l2.294-1.333
			c0.586,0.444,1.173,0.938,1.76,1.48c0.587,0.543,1.125,1.098,1.614,1.667c0.489,0.569,0.867,1.103,1.134,1.601l-2.481,1.44
			c-0.231-0.498-0.578-1.031-1.041-1.601c-0.462-0.569-0.978-1.142-1.546-1.72C111.27,25.923,110.693,25.412,110.105,24.967z"/>
		<path style="fill:#046DDC;" d="M118.989,25.607h24.275v2.881h-24.275V25.607z M120.43,8.348h21.367v2.96H120.43V8.348z
			 M129.366,9.948h3.254v16.833h-3.254V9.948z"/>
		<path style="fill:#046DDC;" d="M146.065,16.164h23.448v2.721h-23.448V16.164z M162.044,13.683l3.495,0.24
			c-0.409,2.739-1.041,5.073-1.894,7.002c-0.854,1.93-1.983,3.526-3.388,4.789c-1.405,1.263-3.121,2.268-5.149,3.014
			c-2.027,0.748-4.438,1.325-7.229,1.734c-0.071-0.25-0.212-0.552-0.426-0.907c-0.213-0.356-0.44-0.711-0.68-1.067
			c-0.241-0.356-0.458-0.658-0.654-0.907c2.668-0.267,4.953-0.694,6.856-1.281c1.902-0.587,3.48-1.409,4.734-2.467
			s2.228-2.415,2.921-4.068C161.323,18.111,161.795,16.084,162.044,13.683z M146.599,8.428h22.354v5.815h-3.041v-3.147h-16.406
			v3.147h-2.907V8.428z M149.16,22.353c0.498-0.675,1.009-1.436,1.534-2.281c0.524-0.844,1.04-1.734,1.547-2.667
			c0.506-0.934,0.982-1.872,1.427-2.814c0.445-0.942,0.818-1.849,1.12-2.721l3.335,0.614c-0.338,0.889-0.725,1.796-1.16,2.721
			c-0.436,0.925-0.898,1.836-1.387,2.734c-0.49,0.898-0.97,1.744-1.44,2.535c-0.472,0.792-0.92,1.499-1.347,2.121L149.16,22.353z
			 M149.16,22.353l1.894-2.107c1.475,0.444,3.059,0.965,4.748,1.561s3.37,1.24,5.042,1.934c1.671,0.693,3.242,1.396,4.708,2.107
			c1.467,0.711,2.734,1.396,3.802,2.054l-2.135,2.507c-0.96-0.64-2.147-1.329-3.561-2.067c-1.414-0.738-2.947-1.472-4.602-2.201
			c-1.653-0.729-3.33-1.422-5.028-2.081C152.329,23.402,150.707,22.833,149.16,22.353z M155.188,6l3.201-0.747
			c0.302,0.587,0.618,1.236,0.947,1.947c0.329,0.712,0.582,1.308,0.76,1.787l-3.361,0.881c-0.142-0.498-0.36-1.116-0.654-1.854
			S155.49,6.605,155.188,6z"/>
		<path style="fill:#046DDC;" d="M171.888,19.205c0.764-0.16,1.635-0.36,2.614-0.601c0.978-0.24,2.009-0.498,3.094-0.773
			c1.084-0.276,2.16-0.556,3.228-0.841l0.374,2.641c-1.476,0.409-2.961,0.818-4.455,1.227c-1.494,0.409-2.863,0.773-4.107,1.094
			L171.888,19.205z M172.234,10.669h8.723v2.667h-8.723V10.669z M175.408,5.494h2.827v21.688c0,0.711-0.08,1.263-0.24,1.654
			c-0.16,0.391-0.462,0.703-0.906,0.934c-0.41,0.213-0.935,0.351-1.575,0.413c-0.64,0.062-1.431,0.093-2.374,0.093
			c-0.053-0.356-0.16-0.787-0.32-1.294c-0.161-0.506-0.329-0.947-0.507-1.32c0.551,0.018,1.076,0.027,1.573,0.027
			c0.499,0,0.836,0,1.015,0c0.337,0,0.506-0.168,0.506-0.507V5.494z M193.041,15.497h0.534l0.479-0.107l1.841,0.747
			c-0.552,1.974-1.294,3.726-2.228,5.255c-0.934,1.53-2.032,2.873-3.295,4.028c-1.263,1.156-2.658,2.139-4.188,2.948
			c-1.53,0.809-3.157,1.472-4.882,1.987c-0.089-0.249-0.218-0.534-0.387-0.854c-0.169-0.32-0.356-0.64-0.56-0.96
			c-0.205-0.32-0.396-0.578-0.574-0.773c1.583-0.374,3.081-0.907,4.495-1.601c1.414-0.694,2.704-1.534,3.868-2.521
			c1.164-0.987,2.165-2.125,3.001-3.415c0.835-1.289,1.468-2.716,1.894-4.282V15.497z M181.304,9.415h14.858v2.642h-14.858V9.415z
			 M181.811,15.497h11.497v2.587h-11.497V15.497z M185.039,17.524c0.978,2.561,2.49,4.753,4.535,6.576
			c2.045,1.823,4.579,3.108,7.602,3.854c-0.195,0.196-0.413,0.44-0.653,0.733c-0.241,0.293-0.463,0.596-0.667,0.907
			c-0.205,0.311-0.369,0.591-0.493,0.84c-3.202-0.943-5.852-2.445-7.95-4.508c-2.099-2.063-3.753-4.615-4.962-7.657L185.039,17.524z
			 M187.226,5.494h2.828v11.417h-2.828V5.494z"/>
		<path style="fill:#046DDC;" d="M203.604,11.069l2.561,0.827c-0.516,1.138-1.116,2.276-1.8,3.415
			c-0.685,1.138-1.419,2.21-2.2,3.214c-0.783,1.004-1.583,1.88-2.401,2.627c-0.089-0.196-0.227-0.462-0.413-0.8
			c-0.187-0.337-0.388-0.671-0.6-1c-0.214-0.329-0.4-0.601-0.561-0.814c1.05-0.907,2.059-2.023,3.028-3.348
			C202.186,13.866,202.981,12.492,203.604,11.069z M203.124,5.494l2.615,0.934c-0.463,0.765-0.996,1.543-1.601,2.334
			c-0.605,0.792-1.245,1.543-1.921,2.254c-0.676,0.711-1.352,1.343-2.028,1.894c-0.106-0.196-0.249-0.427-0.426-0.694
			c-0.178-0.267-0.365-0.533-0.56-0.8c-0.196-0.267-0.374-0.48-0.534-0.64c0.587-0.444,1.161-0.965,1.721-1.561
			s1.085-1.218,1.574-1.867S202.84,6.081,203.124,5.494z M201.523,16.724l2.242-2.268l0.373,0.133v15.819h-2.615V16.724z
			 M206.539,15.978h2.028c0,1.707-0.054,3.232-0.16,4.575c-0.107,1.343-0.33,2.507-0.667,3.494
			c-0.339,0.987-0.854,1.828-1.548,2.521c-0.125-0.249-0.325-0.546-0.6-0.894c-0.276-0.347-0.538-0.609-0.787-0.787
			c0.533-0.569,0.92-1.263,1.16-2.081c0.24-0.818,0.395-1.788,0.466-2.908C206.503,18.778,206.539,17.471,206.539,15.978z
			 M205.898,11.842h10.297v2.641h-10.297V11.842z M209.553,5.627h2.508v24.675h-2.508V5.627z M212.621,7.761l1.76-0.934
			c0.427,0.516,0.854,1.09,1.281,1.721c0.426,0.631,0.738,1.188,0.934,1.667l-1.84,1.067c-0.196-0.48-0.499-1.054-0.907-1.721
			C213.439,8.895,213.03,8.294,212.621,7.761z M213.154,16.004h2.055v6.882c0,0.356,0.008,0.596,0.026,0.72
			c0.018,0.125,0.081,0.187,0.188,0.187c0.088,0,0.204,0,0.347,0c0.142,0,0.257,0,0.346,0c0.143,0,0.293-0.009,0.454-0.027
			c0.161-0.018,0.302-0.054,0.427-0.106c0.017,0.267,0.044,0.609,0.08,1.027s0.071,0.743,0.107,0.974
			c-0.16,0.053-0.329,0.089-0.507,0.106c-0.178,0.018-0.365,0.027-0.56,0.027c-0.089,0-0.191,0-0.307,0c-0.116,0-0.227,0-0.333,0
			c-0.659,0-1.157-0.094-1.494-0.28c-0.338-0.187-0.56-0.493-0.667-0.92c-0.107-0.427-0.161-1.005-0.161-1.734V16.004z
			 M218.649,15.097h2.748v11.897c0,0.712-0.076,1.271-0.227,1.681c-0.151,0.408-0.449,0.729-0.894,0.96
			c-0.445,0.231-0.992,0.374-1.641,0.427c-0.649,0.053-1.427,0.08-2.334,0.08c-0.036-0.409-0.129-0.876-0.28-1.4
			c-0.152-0.524-0.316-0.982-0.494-1.374c0.57,0.018,1.111,0.027,1.627,0.027c0.516,0,0.862,0,1.041,0
			c0.178-0.018,0.298-0.053,0.36-0.106c0.062-0.054,0.093-0.161,0.093-0.32V15.097z M216.115,13.923h7.443v2.588h-7.443V13.923z
			 M216.782,7.548h6.376v2.534h-6.376V7.548z"/>
	</g>
</g>
<g>
	<path d="M77.249,47.541h-9.802v2.252c0,1.694-0.423,3.008-1.268,3.942l-0.972-0.865c0.291-0.272,0.54-0.686,0.748-1.241
		c0.208-0.554,0.312-1.437,0.312-2.648v-2.528h10.982V47.541z M76.906,43.639h-2.044c-0.372,0.384-0.771,0.715-1.2,0.992
		c1.072,0.232,2.053,0.499,2.942,0.798l-0.455,0.838c-1.15-0.38-2.373-0.698-3.668-0.953c-1.716,0.648-3.468,0.945-5.256,0.892
		l-0.355-0.932c1.157,0.013,2.297-0.092,3.419-0.315c-0.8-0.152-1.699-0.266-2.696-0.342l0.55-0.811
		c1.287,0.121,2.656,0.313,4.11,0.577c0.42-0.241,0.775-0.489,1.066-0.744h-7.677v-1.106h5.095c-0.12-0.224-0.252-0.454-0.394-0.69
		l1.247-0.262c0.188,0.3,0.366,0.617,0.535,0.952h4.781V43.639z M77.275,53.387h-9.856v-1.012h4.392V51.47h-2.776v-0.992h2.776
		v-0.792h-2.414c-0.353,0.528-0.724,0.957-1.113,1.288l-0.758-0.959c0.648-0.527,1.155-1.256,1.522-2.186l1.14,0.342
		c-0.059,0.21-0.125,0.375-0.202,0.496h1.824v-0.824h1.247v0.824h3.601v1.019h-3.601v0.792h3.286v0.992h-3.286v0.905h4.217V53.387z"
		/>
	<path d="M95.688,50.37h-5.383v3.292h-1.22V50.37h-5.371v-1.033h5.371V48.64h-4.721v-1.032h4.721v-0.67h-5.069v-1.033h3.13
		c-0.147-0.219-0.306-0.416-0.476-0.59l0.919-0.509h-3.903v-1.026h4.204v-2.045h1.194v2.045h1.233v-2.045h1.2v2.045h4.144v1.026
		h-3.789l0.812,0.429c-0.179,0.299-0.331,0.523-0.456,0.67h3.158v1.033h-5.082v0.67h4.753v1.032h-4.753v0.697h5.383V50.37z
		 M88.085,51.523c-1.26,0.907-2.447,1.598-3.561,2.072l-0.797-0.959c1.081-0.416,2.217-1.053,3.406-1.911L88.085,51.523z
		 M86.899,43.021l-0.919,0.664c-0.398-0.474-0.805-0.878-1.22-1.214l0.918-0.71C86.166,42.172,86.573,42.593,86.899,43.021z
		 M91.458,44.805h-3.607c0.264,0.322,0.519,0.688,0.764,1.1h2.079C90.989,45.556,91.244,45.189,91.458,44.805z M95.937,52.569
		l-0.67,0.986c-1.318-0.765-2.627-1.386-3.928-1.864l0.71-0.992C93.291,51.172,94.587,51.796,95.937,52.569z M94.616,42.311
		c-0.254,0.371-0.647,0.796-1.18,1.274l-1.085-0.644c0.419-0.34,0.82-0.742,1.2-1.207L94.616,42.311z"/>
	<path d="M114.183,45.852l-0.577,1.099c-0.353-0.072-0.751-0.186-1.194-0.342v5.163h-5.792l0.59,0.684
		c-1.292,0.594-2.816,1.035-4.573,1.321l-0.589-1.099c1.305-0.157,2.555-0.458,3.748-0.905h-2.018v-5.189h2.595l-0.523-0.758
		c1.604-0.407,2.8-1.12,3.586-2.139l1.247,0.275c-0.134,0.246-0.234,0.4-0.301,0.462C111.355,45.053,112.622,45.529,114.183,45.852z
		 M106.15,45.469h-3.996v-1.126h3.996V45.469z M106.029,43.283h-3.694v-1.1h3.694V43.283z M111.179,48.037v-0.482h-6.122v0.482
		H111.179z M111.179,49.438v-0.51h-6.122v0.51H111.179z M111.179,50.866V50.33h-6.122v0.537H111.179z M113.941,43.438
		c-0.425,0.608-0.825,1.12-1.2,1.536l-1.04-0.617c0.117-0.134,0.362-0.44,0.737-0.918h-4.325c-0.42,0.482-0.822,0.885-1.206,1.207
		l-0.933-0.797c0.711-0.514,1.393-1.292,2.045-2.333l1.126,0.382c-0.04,0.156-0.127,0.317-0.261,0.482h5.056V43.438z
		 M112.278,46.582c-0.921-0.299-1.815-0.74-2.682-1.321c-0.572,0.519-1.316,0.958-2.232,1.321H112.278z M114.102,52.771
		l-0.657,1.059c-1.198-0.384-2.539-0.664-4.022-0.838l0.63-1.032C111.5,52.084,112.851,52.355,114.102,52.771z"/>
	<path d="M124.966,43.94h-4.452v-1.106h1.756c-0.071-0.21-0.217-0.494-0.436-0.852l1.207-0.456c0.241,0.451,0.442,0.887,0.604,1.307
		h1.321V43.94z M124.664,45.979h-3.821v-1.1h3.821V45.979z M124.664,47.983h-3.821v-1.086h3.821V47.983z M124.677,53.333h-1.207
		v-0.617h-1.441v0.945h-1.186v-4.761h3.834V53.333z M123.47,51.59v-1.549h-1.441v1.549H123.47z M132.629,50.45
		c-0.063,0.711-0.187,1.363-0.373,1.955c-0.186,0.592-0.364,0.962-0.537,1.109c-0.172,0.147-0.37,0.221-0.593,0.221
		c-0.272,0-0.508-0.104-0.707-0.312c-0.199-0.208-0.389-0.822-0.571-1.841c-0.181-1.019-0.271-1.935-0.271-2.749v-5.726h-1.857
		v3.701h1.476v1.187h-1.476v5.679h-1.18v-5.679h-1.274V46.81h1.274v-3.701h-1.112v-1.153h5.33v7.154
		c0,1.064,0.147,2.092,0.442,3.084c0.17-0.626,0.279-1.43,0.328-2.414L132.629,50.45z"/>
	<path d="M150.982,53.421h-11.956v-0.966h11.956V53.421z M144.613,47.648l-1.06,0.389c-0.067-0.161-0.182-0.386-0.342-0.677
		c-1.488,0.362-2.733,0.605-3.734,0.73l-0.222-0.878c0.183-0.071,0.274-0.259,0.274-0.563v-4.727h4.821v3.708h-3.681v1.28
		c0.787-0.121,1.455-0.254,2.005-0.402c-0.095-0.143-0.186-0.271-0.275-0.382l1.086-0.369
		C143.969,46.401,144.344,47.031,144.613,47.648z M149.46,51.919h-8.991v-3.735h8.991V51.919z M143.171,43.364v-0.577h-2.501v0.577
		H143.171z M143.171,44.751v-0.604h-2.501v0.604H143.171z M148.24,49.599v-0.563h-6.524v0.563H148.24z M148.24,51.014v-0.604h-6.524
		v0.604H148.24z M150.968,45.918c-0.04,0.832-0.171,1.344-0.392,1.536c-0.221,0.192-0.706,0.288-1.451,0.288
		c-0.56,0-0.922-0.079-1.09-0.238c-0.168-0.159-0.251-0.383-0.251-0.674v-0.912c-0.702,0.827-1.52,1.469-2.454,1.925l-0.65-0.959
		c1.13-0.5,1.947-1.146,2.447-1.938h-2.159l0.59-2.058h-0.657v-0.965h5.619v0.965h-1.583c-0.063,0.407-0.134,0.753-0.214,1.039
		h2.085v1.019h-1.911v1.536c0,0.192,0.143,0.288,0.43,0.288c0.169,0,0.304-0.055,0.402-0.164s0.147-0.466,0.147-1.069
		L150.968,45.918z M147.784,42.888h-1.053l-0.288,1.039h1.106C147.67,43.578,147.749,43.232,147.784,42.888z"/>
	<path d="M161.833,51.168l-0.852,0.878c-0.554-0.671-0.874-1.051-0.958-1.14c-0.362,0.783-1.06,1.726-2.092,2.83l-0.75-0.979
		c0.96-0.992,1.621-1.919,1.978-2.782c-0.608-0.626-1.167-1.162-1.676-1.609c0.26-1.023,0.47-1.958,0.63-2.802
		c-0.272,0.036-0.542,0.058-0.811,0.067l-0.107-1.126l1.126-0.094c0.219-1.556,0.338-2.526,0.356-2.91l1.152,0.181
		c-0.125,1.144-0.235,2.005-0.329,2.582c0.304-0.036,0.57-0.078,0.798-0.127c0.036-0.42,0.054-0.778,0.054-1.073h1.139
		c0.009,0.089,0,0.382-0.027,0.878c0.085,0,0.199-0.018,0.342-0.054l0.027,1.153c-0.17,0.058-0.322,0.087-0.456,0.087
		c-0.188,1.828-0.471,3.332-0.852,4.512C161.174,50.364,161.61,50.873,161.833,51.168z M160.184,45.328
		c-0.193,0.031-0.481,0.064-0.865,0.101c-0.139,0.805-0.313,1.652-0.523,2.541l0.798,0.738
		C159.817,47.925,160.014,46.799,160.184,45.328z M164.18,50.478c-0.657,1.287-1.274,2.244-1.851,2.87l-0.992-0.684
		c0.729-0.836,1.321-1.743,1.776-2.722L164.18,50.478z M169.262,49.519h-3.265v4.05h-1.2v-4.05h-3.306v-1.073h3.306v-0.878h-2.045
		v-3.929h-0.838v-1.053h0.838v-0.965h1.193v0.965h2.87v-0.965h1.187v0.965h1.04v1.053h-1.04v3.929h-2.004v0.878h3.265V49.519z
		 M166.815,44.577v-0.938h-2.87v0.938H166.815z M166.815,46.521v-0.945h-2.87v0.945H166.815z M169.383,52.73l-1.026,0.644
		c-0.487-0.957-1.055-1.909-1.703-2.856l1.012-0.59C168.403,50.991,168.976,51.926,169.383,52.73z"/>
	<path d="M187.91,45.469l-0.717,1.053c-2.159-0.997-3.985-2.121-5.478-3.372c-1.368,1.113-3.125,2.215-5.27,3.305l-0.825-0.999
		c2.583-1.184,4.542-2.477,5.873-3.875l1.308,0.469c-0.077,0.089-0.149,0.172-0.222,0.249
		C183.889,43.415,185.666,44.472,187.91,45.469z M186.207,53.696h-1.28v-0.704h-6.411v0.704h-1.307v-5.579h8.998V53.696z
		 M184.927,51.785v-2.487h-6.411v2.487H184.927z M184.886,46.663h-6.275v-1.18h6.275V46.663z"/>
	<path d="M206.035,49.411h-5.344v4.285h-1.247v-4.285h-5.357v-1.213h5.357V43.27h-5.001v-1.207h11.304v1.207h-5.056v4.928h5.344
		V49.411z M198.016,47.145l-1.167,0.537c-0.398-1.001-0.988-2.079-1.77-3.232l1.153-0.577
		C196.907,44.852,197.502,45.943,198.016,47.145z M205.183,44.463c-0.594,1.301-1.245,2.387-1.951,3.258l-1.126-0.563
		c0.644-0.778,1.294-1.864,1.951-3.259L205.183,44.463z"/>
	<path d="M224.602,46.649l-1.059,0.852c-0.26-0.416-0.544-0.818-0.852-1.207c-3.531,0.416-6.803,0.666-9.815,0.75l-0.289-1.153
		c1.314-0.424,2.74-1.871,4.278-4.337l1.388,0.275c-0.912,1.475-1.996,2.789-3.251,3.942c1.792-0.067,4.054-0.246,6.785-0.536
		c-0.568-0.626-1.256-1.268-2.065-1.924l1.059-0.811C222.421,43.92,223.695,45.304,224.602,46.649z M223.389,53.649h-1.248v-0.617
		h-7.221v0.617h-1.254V47.97h9.722V53.649z M222.141,51.838v-2.675h-7.221v2.675H222.141z"/>
</g>
</svg>
